<svg width="323" height="223" viewBox="0 0 323 223" fill="none" xmlns="http://www.w3.org/2000/svg">
<path d="M12.5 19H38.5V0H206.5V19.5H263.5V54L280 101L311 121.5V153.5L323 169.5V195H291C291 132 208.5 141 209.5 195H113C111 180.5 110 154.5 73 150.658C72.3035 150.586 68.1174 150.689 67.4361 150.658C38.5 155 27.6288 184.354 31.5 195H0V168.5L12.5 153.5V19Z" fill="#33ABAB"/>
<rect x="31" y="39" width="193" height="71" rx="10" fill="white"/>
<path d="M73.3506 84.7705L81.8818 60.1406H86.1885L75.1143 90H71.6279L60.5742 60.1406H64.8604L73.3506 84.7705ZM97.9189 90.4102C94.9111 90.4102 92.4639 89.4258 90.5771 87.457C88.6904 85.4746 87.7471 82.8291 87.7471 79.5205V78.8232C87.7471 76.6221 88.1641 74.6602 88.998 72.9375C89.8457 71.2012 91.0215 69.8477 92.5254 68.877C94.043 67.8926 95.6836 67.4004 97.4473 67.4004C100.332 67.4004 102.574 68.3506 104.174 70.251C105.773 72.1514 106.573 74.8721 106.573 78.4131V79.9922H91.541C91.5957 82.1797 92.2314 83.9502 93.4482 85.3037C94.6787 86.6436 96.2373 87.3135 98.124 87.3135C99.4639 87.3135 100.599 87.04 101.528 86.4932C102.458 85.9463 103.271 85.2217 103.969 84.3193L106.286 86.124C104.427 88.9814 101.638 90.4102 97.9189 90.4102ZM97.4473 70.5176C95.916 70.5176 94.6309 71.0781 93.5918 72.1992C92.5527 73.3066 91.9102 74.8652 91.6641 76.875H102.779V76.5879C102.67 74.6602 102.15 73.1699 101.221 72.1172C100.291 71.0508 99.0332 70.5176 97.4473 70.5176ZM114.571 67.8105L114.694 70.5996C116.39 68.4668 118.604 67.4004 121.339 67.4004C126.028 67.4004 128.394 70.0459 128.435 75.3369V90H124.641V75.3164C124.627 73.7168 124.258 72.5342 123.533 71.7686C122.822 71.0029 121.708 70.6201 120.19 70.6201C118.96 70.6201 117.88 70.9482 116.95 71.6045C116.021 72.2607 115.296 73.1221 114.776 74.1885V90H110.982V67.8105H114.571ZM133.233 78.7207C133.233 75.3164 134.04 72.582 135.653 70.5176C137.267 68.4395 139.379 67.4004 141.99 67.4004C144.588 67.4004 146.646 68.2891 148.163 70.0664V58.5H151.957V90H148.471L148.286 87.6211C146.769 89.4805 144.656 90.4102 141.949 90.4102C139.379 90.4102 137.28 89.3574 135.653 87.252C134.04 85.1465 133.233 82.3984 133.233 79.0078V78.7207ZM137.027 79.1514C137.027 81.667 137.547 83.6357 138.586 85.0576C139.625 86.4795 141.061 87.1904 142.893 87.1904C145.299 87.1904 147.056 86.1104 148.163 83.9502V73.7578C147.028 71.666 145.285 70.6201 142.934 70.6201C141.074 70.6201 139.625 71.3379 138.586 72.7734C137.547 74.209 137.027 76.335 137.027 79.1514ZM171.562 90C171.344 89.5625 171.166 88.7832 171.029 87.6621C169.266 89.4941 167.16 90.4102 164.713 90.4102C162.525 90.4102 160.728 89.7949 159.319 88.5645C157.925 87.3203 157.228 85.748 157.228 83.8477C157.228 81.5371 158.103 79.7461 159.853 78.4746C161.616 77.1895 164.091 76.5469 167.276 76.5469H170.968V74.8037C170.968 73.4775 170.571 72.4248 169.778 71.6455C168.985 70.8525 167.816 70.4561 166.271 70.4561C164.918 70.4561 163.783 70.7979 162.867 71.4814C161.951 72.165 161.493 72.9922 161.493 73.9629H157.679C157.679 72.8555 158.068 71.7891 158.848 70.7637C159.641 69.7246 160.707 68.9043 162.047 68.3027C163.4 67.7012 164.884 67.4004 166.497 67.4004C169.054 67.4004 171.057 68.043 172.506 69.3281C173.955 70.5996 174.707 72.3564 174.762 74.5986V84.8115C174.762 86.8486 175.021 88.4688 175.541 89.6719V90H171.562ZM165.267 87.1084C166.456 87.1084 167.584 86.8008 168.65 86.1855C169.717 85.5703 170.489 84.7705 170.968 83.7861V79.2334H167.994C163.346 79.2334 161.021 80.5938 161.021 83.3145C161.021 84.5039 161.418 85.4336 162.211 86.1035C163.004 86.7734 164.022 87.1084 165.267 87.1084ZM193.629 84.1143C193.629 83.0889 193.239 82.2959 192.46 81.7354C191.694 81.1611 190.348 80.6689 188.42 80.2588C186.506 79.8486 184.981 79.3564 183.847 78.7822C182.726 78.208 181.892 77.5244 181.345 76.7314C180.812 75.9385 180.545 74.9951 180.545 73.9014C180.545 72.083 181.311 70.5449 182.842 69.2871C184.387 68.0293 186.355 67.4004 188.748 67.4004C191.264 67.4004 193.301 68.0498 194.859 69.3486C196.432 70.6475 197.218 72.3086 197.218 74.332H193.403C193.403 73.293 192.959 72.3975 192.07 71.6455C191.195 70.8936 190.088 70.5176 188.748 70.5176C187.367 70.5176 186.287 70.8184 185.508 71.4199C184.729 72.0215 184.339 72.8076 184.339 73.7783C184.339 74.6943 184.701 75.3848 185.426 75.8496C186.15 76.3145 187.456 76.7588 189.343 77.1826C191.243 77.6064 192.781 78.1123 193.957 78.7002C195.133 79.2881 196.001 79.999 196.562 80.833C197.136 81.6533 197.423 82.6582 197.423 83.8477C197.423 85.8301 196.63 87.4229 195.044 88.626C193.458 89.8154 191.4 90.4102 188.871 90.4102C187.094 90.4102 185.521 90.0957 184.154 89.4668C182.787 88.8379 181.714 87.9629 180.935 86.8418C180.169 85.707 179.786 84.4834 179.786 83.1709H183.58C183.648 84.4424 184.154 85.4541 185.098 86.2061C186.055 86.9443 187.312 87.3135 188.871 87.3135C190.307 87.3135 191.455 87.0264 192.316 86.4521C193.191 85.8643 193.629 85.085 193.629 84.1143Z" fill="#33ABAB"/>
<circle cx="72.5" cy="191.5" r="31.5" fill="#33ABAB"/>
<circle cx="250.5" cy="191.5" r="31.5" fill="#33ABAB"/>
<circle cx="72" cy="191" r="9" fill="white"/>
<circle cx="250" cy="191" r="9" fill="white"/>
</svg>
